<svg width="125" height="30" viewBox="0 0 125 30" fill="none" xmlns="http://www.w3.org/2000/svg">
<g clip-path="url(#clip0_112_7666)">
<path fill-rule="evenodd" clip-rule="evenodd" d="M0.389648 15V30H15.2425H30.0955V15V0H15.2425H0.389648V15ZM55.6667 7.9149V9.31914H58.3065H60.9463V16.3723V23.4256H62.4727H63.9997V16.3723V9.31914H66.6397H69.2791V7.9149V6.51066H62.4727H55.6667V7.9149ZM74.7499 14.9681V23.4256H80.6335H86.5177V22.0213V20.617H82.1287H77.7391V13.5638V6.51066H76.2445H74.7499V14.9681ZM91.9243 14.9681V23.4256H98.1583H104.392V22.0532V20.6809H99.4939H94.5961V18.4787V16.2766H98.3491H102.102V14.9042V13.5319H98.3491H94.5961V11.3936V9.2553H99.4939H104.392V7.88298V6.51066H98.1583H91.9243V14.9681ZM110.308 14.9681V23.4256H111.802H113.297V20.4893V17.5532L115.126 17.5567L116.955 17.5601L118.994 20.4769L121.034 23.3936L122.803 23.4106C124.223 23.4242 124.564 23.4114 124.539 23.3454C124.522 23.3003 123.58 21.957 122.446 20.3603C121.312 18.7638 120.319 17.364 120.239 17.2498C120.104 17.0546 120.101 17.0396 120.211 17.0026C120.563 16.8823 121.369 16.5141 121.682 16.3297C121.881 16.2127 122.304 15.8578 122.622 15.5408C123.092 15.0721 123.25 14.8636 123.466 14.4238C123.887 13.5606 124.001 13.0306 124.001 11.9042C124.001 10.7853 123.887 10.2439 123.478 9.4149C122.681 7.79742 121.043 6.81186 118.763 6.57702C118.392 6.5388 116.461 6.51066 114.212 6.51066H110.308V14.9681ZM20.1846 14.9042C22.1686 19.4681 23.8067 23.2381 23.8248 23.2819C23.8506 23.3444 23.5315 23.3614 22.349 23.3603L20.8402 23.359L18.0472 16.738C16.511 13.0964 15.235 10.0947 15.2116 10.0673C15.1882 10.0401 13.9001 13.0201 12.3491 16.6897L9.52899 23.3617H8.07945H6.62991L6.71637 23.1542C6.93789 22.6226 13.83 6.7863 13.8835 6.68598C13.9395 6.58116 14.0515 6.5733 15.2609 6.58914L16.5774 6.60636L20.1846 14.9042ZM35.6296 15V23.4256H37.0923H38.555L38.5712 17.5249L38.5874 11.6243L43.1355 17.5243L47.6836 23.4242L48.9718 23.4249L50.2599 23.4256V15V6.57444H48.7653H47.2709L47.2546 12.3193L47.2384 18.0642L42.8175 12.3227L38.3966 6.5811L37.0131 6.5778L35.6296 6.57444V15ZM118.704 9.40956C119.623 9.60546 120.386 10.1435 120.705 10.8199C121.342 12.17 120.846 13.7189 119.558 14.4053C118.793 14.813 118.677 14.8271 115.858 14.8555L113.297 14.8813V12.1003V9.31914L115.794 9.32022C117.673 9.32106 118.393 9.3432 118.704 9.40956Z" fill="#ED4746"/>
</g>
<defs>
<clipPath id="clip0_112_7666">
<rect width="124.8" height="30" fill="white" transform="translate(0.0463867)"/>
</clipPath>
</defs>
</svg>
