<svg width="203" height="16" viewBox="0 0 203 16" fill="none" xmlns="http://www.w3.org/2000/svg">
<path d="M49.1699 14.4833C49.1207 14.3374 49.0716 14.1305 49.0224 13.8751C48.9979 13.6196 48.9733 13.3641 48.9364 13.1087C48.9241 12.8532 48.8996 12.5125 48.8504 12.0746C48.8258 11.6366 48.8013 11.2473 48.7644 10.931C48.6661 10.0673 48.4449 9.42252 48.0886 8.99673C47.7445 8.55877 47.2284 8.23031 46.5403 8.03566V7.97483C48.322 7.48821 49.2068 6.3325 49.2068 4.48335C49.2068 3.29113 48.7767 2.3179 47.9042 1.57581C47.0441 0.833713 45.9259 0.46875 44.525 0.46875H37.8403V14.8848H40.7895V9.09405H43.1733C44.9551 9.09405 45.9013 9.9213 46.0242 11.5515C46.0365 11.7096 46.0487 11.9408 46.061 12.2206C46.0856 12.4882 46.1102 12.7072 46.1225 12.8897C46.1348 13.0478 46.147 13.2425 46.1593 13.4736C46.1839 13.6926 46.2085 13.8751 46.2208 14.0211C46.2453 14.1549 46.2699 14.2887 46.3068 14.4225C46.3314 14.5563 46.3682 14.6658 46.4051 14.7388C46.442 14.8118 46.4911 14.8483 46.5525 14.8848H49.3911V14.7388C49.2928 14.7023 49.2191 14.605 49.1453 14.4712M45.7047 6.28384C45.2992 6.6488 44.7093 6.83128 43.9352 6.83128H40.8017V2.81668H44.0212C44.7831 2.81668 45.3606 2.99916 45.7538 3.37629C46.147 3.75342 46.3436 4.24004 46.3436 4.84831C46.3436 5.45658 46.1348 5.91887 45.717 6.28384" fill="#FF7448"/>
<path d="M85.8987 14.4833C85.8495 14.3374 85.8004 14.1305 85.7512 13.8751C85.7266 13.6196 85.7021 13.3641 85.6652 13.1087C85.6529 12.8532 85.6283 12.5125 85.5792 12.0746C85.5546 11.6366 85.53 11.2473 85.4932 10.931C85.3948 10.0673 85.1737 9.42252 84.8173 8.99673C84.4733 8.55877 83.9572 8.23031 83.269 8.03566V7.97483C85.0508 7.48821 85.9355 6.3325 85.9355 4.48335C85.9355 3.29113 85.5054 2.3179 84.633 1.57581C83.7728 0.833713 82.6546 0.46875 81.2538 0.46875H74.5691V14.8848H77.5182V9.09405H79.9021C81.6839 9.09405 82.63 9.9213 82.7529 11.5515C82.7652 11.7096 82.7775 11.9408 82.7898 12.2206C82.8144 12.4882 82.8389 12.7072 82.8512 12.8897C82.8635 13.0478 82.8758 13.2425 82.8881 13.4736C82.9127 13.6926 82.9372 13.8751 82.9495 14.0211C82.9741 14.1549 82.9987 14.2887 83.0355 14.4225C83.0601 14.5563 83.097 14.6658 83.1339 14.7388C83.1707 14.8118 83.2199 14.8483 83.2813 14.8848H86.1198V14.7388C86.0215 14.7023 85.9478 14.605 85.8741 14.4712M82.4334 6.28384C82.0279 6.6488 81.4381 6.83128 80.664 6.83128H77.5305V2.81668H80.75C81.5118 2.81668 82.0894 2.99916 82.4826 3.37629C82.8758 3.75342 83.0724 4.24004 83.0724 4.84831C83.0724 5.45658 82.8635 5.91887 82.4457 6.28384" fill="#FF7448"/>
<path d="M178.083 14.4833C178.034 14.3374 177.985 14.1305 177.936 13.8751C177.911 13.6196 177.887 13.3641 177.85 13.1087C177.838 12.8532 177.813 12.5125 177.764 12.0746C177.739 11.6366 177.715 11.2473 177.678 10.931C177.58 10.0673 177.358 9.42252 177.002 8.99673C176.658 8.55877 176.142 8.23031 175.454 8.03566V7.97483C177.236 7.48821 178.12 6.3325 178.12 4.48335C178.12 3.29113 177.69 2.3179 176.818 1.57581C175.958 0.833713 174.839 0.46875 173.439 0.46875H166.754V14.8848H169.703V9.09405H172.087C173.869 9.09405 174.815 9.9213 174.938 11.5515C174.95 11.7096 174.962 11.9408 174.975 12.2206C174.999 12.4882 175.024 12.7072 175.036 12.8897C175.048 13.0478 175.061 13.2425 175.073 13.4736C175.097 13.6926 175.122 13.8751 175.134 14.0211C175.159 14.1549 175.183 14.2887 175.22 14.4225C175.245 14.5563 175.282 14.6658 175.319 14.7388C175.356 14.8118 175.405 14.8483 175.466 14.8848H178.292V14.7388C178.194 14.7023 178.12 14.605 178.047 14.4712M174.606 6.28384C174.2 6.6488 173.611 6.83128 172.836 6.83128H169.703V2.81668H172.923C173.684 2.81668 174.262 2.99916 174.655 3.37629C175.048 3.75342 175.245 4.24004 175.245 4.84831C175.245 5.45658 175.036 5.91887 174.618 6.28384" fill="#FF7448"/>
<path d="M189.56 7.92623C189.278 7.64643 188.872 7.39095 188.332 7.15981C187.816 6.9165 187.336 6.73402 186.882 6.61236C186.439 6.47854 185.862 6.33256 185.149 6.18657C183.969 5.9311 183.134 5.67562 182.667 5.42015C182.2 5.16468 181.979 4.76322 181.979 4.21577C181.979 3.70482 182.212 3.2912 182.691 2.98706C183.171 2.68292 183.81 2.52477 184.608 2.52477C185.407 2.52477 186.021 2.70725 186.525 3.08438C187.041 3.46151 187.336 3.99679 187.422 4.70239H190.261C190.15 3.26687 189.597 2.14764 188.614 1.36906C187.619 0.590466 186.304 0.201172 184.645 0.201172C182.986 0.201172 181.622 0.578301 180.59 1.33256C179.57 2.07465 179.066 3.13305 179.066 4.51991C179.066 5.10385 179.165 5.6148 179.349 6.07708C179.533 6.51504 179.767 6.88 180.037 7.15981C180.32 7.42745 180.701 7.68292 181.18 7.9019C181.672 8.13305 182.114 8.30336 182.507 8.41285C182.913 8.52234 183.429 8.64399 184.055 8.80215C184.572 8.9238 184.928 9.00896 185.112 9.05762C185.297 9.09412 185.579 9.16711 185.948 9.2766C186.316 9.37392 186.562 9.45908 186.697 9.5564C186.833 9.64156 186.992 9.75105 187.189 9.89704C187.373 10.0309 187.496 10.189 187.558 10.3837C187.619 10.554 187.656 10.7608 187.656 10.9919C187.656 11.6245 187.385 12.099 186.857 12.4031C186.329 12.6951 185.653 12.8532 184.817 12.8532C183.773 12.8532 182.986 12.6708 182.458 12.2936C181.942 11.9165 181.635 11.2961 181.536 10.4445H178.649C178.698 11.9773 179.275 13.1574 180.357 13.9968C181.438 14.8119 182.974 15.2255 184.94 15.2255C186.624 15.2255 187.988 14.824 189.032 14.0211C190.077 13.2182 190.605 12.099 190.605 10.6756C190.605 10.0674 190.507 9.54424 190.298 9.08195C190.113 8.6075 189.868 8.23037 189.56 7.95056" fill="#FF7448"/>
<path d="M190.323 0.46875V2.92617H194.709V14.8848H197.658V2.92617H202.045V0.46875H190.323Z" fill="#FF7448"/>
<path d="M165.562 0.46875H162.613V14.8848H165.562V0.46875Z" fill="#FF7448"/>
<path d="M53.2739 8.54706H60.0815V6.15046H53.2739V2.92662H61.0277V0.457031H50.3125V14.8853H61.0891V12.44H53.2739V8.54706Z" fill="#FF7448"/>
<path d="M3.70401 8.54706H10.5116V6.15046H3.70401V2.92662H11.47V0.457031H0.754883V14.8853H11.5315V12.44H3.70401V8.54706Z" fill="#FF7448"/>
<path d="M21.4356 8.02394C21.4356 8.69304 21.4602 9.53246 21.5216 10.53H21.4848L21.325 10.2016C21.2267 9.97041 21.0915 9.69061 20.9195 9.34997C20.7598 9.00934 20.6123 8.72954 20.4771 8.49839L15.6111 0.457031H12.6128V14.8731H15.5251V7.42783C15.5251 6.75873 15.5005 5.91932 15.439 4.90959H15.4759L15.6356 5.22589C15.734 5.45703 15.8691 5.73684 16.0412 6.07747C16.2132 6.39377 16.3729 6.67358 16.5081 6.90472L21.4848 14.8731H24.3356V0.457031H21.4233V8.02394H21.4356Z" fill="#FF7448"/>
<path d="M25.2451 2.92617H29.6319V14.8848H32.5811V2.92617H36.9679V0.46875H25.2451V2.92617Z" fill="#FF7448"/>
<path d="M68.5725 0.46875H62.1704V14.8848H65.2301V9.66583H68.8182C70.3297 9.66583 71.5093 9.2522 72.3818 8.41279C73.2542 7.57337 73.6843 6.47848 73.6843 5.10379C73.6843 3.72909 73.2542 2.70719 72.3818 1.81911C71.497 0.918872 70.2314 0.46875 68.5725 0.46875ZM70.0348 6.72179C69.6292 7.09892 69.0394 7.2814 68.2776 7.2814H65.2178V3.01133H68.3144C69.0517 3.01133 69.617 3.19381 70.0225 3.57094C70.428 3.9359 70.6369 4.44685 70.6369 5.12812C70.6369 5.80938 70.428 6.3325 70.0225 6.72179" fill="#FF7448"/>
<path d="M132.138 10.2011C132.138 10.9797 131.905 11.6123 131.45 12.0746C130.983 12.549 130.308 12.7802 129.398 12.7802C127.58 12.7802 126.67 11.9286 126.67 10.2376V0.46875H123.721V10.2498C123.721 11.8191 124.213 13.0357 125.183 13.8751C126.167 14.7023 127.592 15.1281 129.46 15.1281C131.327 15.1281 132.704 14.7023 133.65 13.8629C134.621 13.0113 135.1 11.807 135.1 10.2498V0.46875H132.151V10.2133L132.138 10.2011Z" fill="#FF7448"/>
<path d="M151.111 14.8848H154.06V8.91157H160.401V6.41766H154.06V2.93834H161.532V0.46875H151.111V14.8848Z" fill="#FF7448"/>
<path d="M89.9906 8.54706H96.7982V6.15046H89.9906V2.92662H97.7567V0.457031H87.0415V14.8853H97.8181V12.44H89.9906V8.54706Z" fill="#FF7448"/>
<path d="M114.8 8.54706H121.595V6.15046H114.8V2.92662H122.554V0.457031H111.839V14.8853H122.615V12.44H114.8V8.54706Z" fill="#FF7448"/>
<path d="M107.722 8.02394C107.722 8.69304 107.747 9.53246 107.808 10.53H107.771L107.612 10.2016C107.513 9.97041 107.378 9.69061 107.206 9.34997C107.046 9.00934 106.899 8.72954 106.764 8.49839L101.922 0.457031H98.9241V14.8731H101.836V7.42783C101.836 6.75873 101.812 5.91932 101.75 4.90959H101.787L101.947 5.22589C102.045 5.45703 102.18 5.73684 102.352 6.07747C102.524 6.39377 102.684 6.67358 102.819 6.90472L107.784 14.8731H110.635V0.457031H107.722V8.02394Z" fill="#FF7448"/>
<path d="M147.486 14.4833C147.437 14.3374 147.388 14.1305 147.339 13.8751C147.314 13.6196 147.29 13.3641 147.253 13.1087C147.241 12.8532 147.216 12.5125 147.167 12.0746C147.142 11.6366 147.118 11.2473 147.081 10.931C146.982 10.0673 146.761 9.42252 146.405 8.99673C146.061 8.55877 145.545 8.23031 144.857 8.03566V7.97483C146.638 7.48821 147.523 6.3325 147.523 4.48335C147.523 3.29113 147.093 2.3179 146.221 1.57581C145.36 0.833713 144.242 0.46875 142.841 0.46875H136.157V14.8848H139.106V9.09405H141.49C143.272 9.09405 144.218 9.9213 144.341 11.5515C144.353 11.7096 144.365 11.9408 144.377 12.2206C144.402 12.4882 144.427 12.7072 144.439 12.8897C144.451 13.0478 144.463 13.2425 144.476 13.4736C144.5 13.6926 144.525 13.8751 144.537 14.0211C144.562 14.1549 144.586 14.2887 144.623 14.4225C144.648 14.5563 144.685 14.6658 144.722 14.7388C144.758 14.8118 144.808 14.8483 144.869 14.8848H147.695V14.7388C147.597 14.7023 147.523 14.605 147.449 14.4712M144.009 6.28384C143.603 6.6488 143.013 6.83128 142.239 6.83128H139.106V2.81668H142.325C143.087 2.81668 143.665 2.99916 144.058 3.37629C144.451 3.75342 144.648 4.24004 144.648 4.84831C144.648 5.45658 144.439 5.91887 144.021 6.28384" fill="#FF7448"/>
</svg>
