<svg width="130" height="30" viewBox="0 0 130 30" fill="none" xmlns="http://www.w3.org/2000/svg">
<g clip-path="url(#clip0_112_7652)">
<path d="M31.3515 15C31.3515 23.2843 24.6358 30 16.3515 30C8.06734 30 1.35156 23.2843 1.35156 15C1.35156 6.71574 8.06734 0 16.3515 0C24.6358 0 31.3515 6.71574 31.3515 15Z" fill="#FF6154"/>
<path d="M18.3525 15L14.1025 15.0001V10.5001H18.3525C19.5952 10.5001 20.6025 11.5073 20.6025 12.75C20.6025 13.9926 19.5952 15 18.3525 15ZM18.3525 7.5H11.1025V22.5H14.1025V18.0001H18.3525C21.252 18.0001 23.6025 15.6495 23.6025 12.75C23.6025 9.8505 21.252 7.5 18.3525 7.5Z" fill="white"/>
<path d="M47.1105 13.1665C47.1105 12.3415 46.4762 11.8407 45.6523 11.8407H43.4434V14.4773H45.6523C46.4762 14.4773 47.1105 13.9765 47.1105 13.1665ZM41.3521 20V10H45.9462C48.082 10 49.2451 11.4432 49.2451 13.1665C49.2451 14.8748 48.0676 16.318 45.9462 16.318H43.4434V20H41.3521Z" fill="black"/>
<path d="M50.5161 20V12.7094H52.3857V13.6671C52.9013 13.0483 53.7708 12.5332 54.6545 12.5332V14.3589C54.5214 14.3295 54.3595 14.3152 54.1389 14.3152C53.5201 14.3152 52.695 14.6683 52.3857 15.1253V20H50.5161Z" fill="black"/>
<path d="M60.9463 16.2591C60.9463 15.1545 60.2978 14.1971 59.1201 14.1971C57.9558 14.1971 57.3081 15.1545 57.3081 16.2591C57.3081 17.3786 57.9558 18.3354 59.1201 18.3354C60.2978 18.3354 60.9463 17.3786 60.9463 16.2591ZM55.3643 16.2591C55.3643 14.2415 56.7782 12.5332 59.1201 12.5332C61.4767 12.5332 62.8903 14.2415 62.8903 16.2591C62.8903 18.2767 61.4767 20 59.1201 20C56.7782 20 55.3643 18.2767 55.3643 16.2591Z" fill="black"/>
<path d="M69.1844 17.5255V15.0072C68.8748 14.5359 68.1974 14.1971 67.5782 14.1971C66.5042 14.1971 65.768 15.0366 65.768 16.2591C65.768 17.4961 66.5042 18.3355 67.5782 18.3355C68.1974 18.3355 68.8748 17.9967 69.1844 17.5255ZM69.1844 20V18.91C68.624 19.6169 67.859 20 66.9896 20C65.2076 20 63.8384 18.645 63.8384 16.2591C63.8384 13.9471 65.1788 12.5333 66.9896 12.5333C67.829 12.5333 68.624 12.8865 69.1844 13.6227V10H71.0696V20H69.1844Z" fill="black"/>
<path d="M77.7303 20.0005V18.9254C77.2443 19.4555 76.3905 20.0005 75.2271 20.0005C73.6659 20.0005 72.9297 19.1461 72.9297 17.7616V12.71H74.7993V17.0253C74.7993 18.0122 75.3147 18.336 76.1097 18.336C76.8321 18.336 77.4063 17.9385 77.7303 17.526V12.71H79.6011V20.0005H77.7303Z" fill="black"/>
<path d="M81.0049 16.2591C81.0049 14.0796 82.5949 12.5332 84.7753 12.5332C86.2333 12.5332 87.1171 13.1663 87.5881 13.8146L86.3653 14.9627C86.0269 14.4621 85.5115 14.1971 84.8641 14.1971C83.7295 14.1971 82.9345 15.0221 82.9345 16.2591C82.9345 17.496 83.7295 18.3354 84.8641 18.3354C85.5115 18.3354 86.0269 18.0411 86.3653 17.5548L87.5881 18.7035C87.1171 19.3518 86.2333 20 84.7753 20C82.5949 20 81.0049 18.4536 81.0049 16.2591Z" fill="black"/>
<path d="M89.1973 18.0412V14.3446H88.0195V12.7095H89.1973V10.7656H91.0681V12.7095H92.5105V14.3446H91.0681V17.5405C91.0681 17.9968 91.3033 18.3355 91.7155 18.3355C91.9951 18.3355 92.2615 18.2324 92.3635 18.1149L92.7613 19.5431C92.4817 19.7938 91.9807 20 91.2001 20C89.8891 20 89.1973 19.3225 89.1973 18.0412Z" fill="black"/>
<path d="M104.49 20V15.6848H99.8507V20H97.7603V10H99.8507V13.8584H104.49V10H106.596V20H104.49Z" fill="black"/>
<path d="M113.288 20.0005V18.9254C112.802 19.4555 111.949 20.0005 110.785 20.0005C109.224 20.0005 108.488 19.1461 108.488 17.7616V12.71H110.357V17.0253C110.357 18.0122 110.873 18.336 111.668 18.336C112.39 18.336 112.964 17.9385 113.288 17.526V12.71H115.159V20.0005H113.288Z" fill="black"/>
<path d="M121.819 20V15.5228C121.819 14.5358 121.305 14.1971 120.508 14.1971C119.772 14.1971 119.213 14.6096 118.888 15.0221V20H117.019V12.7094H118.888V13.6227C119.345 13.0927 120.229 12.5332 121.378 12.5332C122.954 12.5332 123.704 13.4165 123.704 14.8008V20H121.819Z" fill="black"/>
<path d="M125.934 18.0412V14.3446H124.756V12.7095H125.934V10.7656H127.804V12.7095H129.247V14.3446H127.804V17.5405C127.804 17.9968 128.039 18.3355 128.452 18.3355C128.731 18.3355 128.997 18.2324 129.1 18.1149L129.498 19.5431C129.218 19.7938 128.716 20 127.936 20C126.625 20 125.934 19.3225 125.934 18.0412Z" fill="black"/>
</g>
<defs>
<clipPath id="clip0_112_7652">
<rect width="129" height="30" fill="white" transform="translate(0.754883)"/>
</clipPath>
</defs>
</svg>
