<svg width="170" height="30" viewBox="0 0 170 30" fill="none" xmlns="http://www.w3.org/2000/svg">
<g clip-path="url(#clip0_112_7668)">
<path d="M4.18879 3.71815H9.90844V8.82093H14.0299V12.8864H9.90844V21.2696C9.90844 23.0359 10.4691 23.3723 12.3757 23.3723H14.0299V27.5218H10.3851C5.75889 27.5218 4.18879 26.6247 4.18879 22.2789V12.8864H1.24487V8.82093H4.18879V3.71815ZM33.4317 21.6901C31.7495 26.12 27.8243 28.0266 24.0953 28.0266C18.0112 28.0266 13.8336 24.3537 13.8336 18.1013C13.8336 12.1013 18.3757 8.31627 23.871 8.31627C30.0953 8.31627 33.9084 13.0266 33.5159 19.6714H19.6374C19.8056 22.335 21.8804 23.5406 23.9552 23.5406C26.142 23.5406 27.5159 22.7555 28.1607 21.6621L33.4317 21.6901ZM19.7215 16.1947H27.8243C27.7121 13.8396 26.086 12.6621 23.8991 12.6621C21.8243 12.6621 20.0299 13.7275 19.7215 16.1947ZM53.1981 15.6901H47.871C47.3663 13.5032 45.9925 12.7462 44.3103 12.7462C42.2636 12.7462 40.2449 14.148 40.2449 18.1574C40.2449 22.2228 42.2636 23.5686 44.3103 23.5686C46.413 23.5686 47.7308 22.4751 48.1514 20.6808H53.4785C52.1888 26.2321 47.7028 27.9985 43.9458 27.9985C37.7775 27.9985 34.385 24.0452 34.385 18.0733C34.385 12.1013 38.2823 8.28824 43.9458 8.28824C47.8149 8.28824 52.0766 10.0546 53.1981 15.6901ZM59.843 11.3163C60.656 9.91443 62.7029 8.42841 65.6465 8.42841C70.4411 8.42841 71.9549 11.2602 71.9549 16.335V27.5779H66.2357V17.7929C66.2357 15.1293 66.1517 12.9425 63.3755 12.9425C60.9083 12.9425 59.871 14.5405 59.871 18.0452V27.634H54.1514V2.40039H59.871L59.843 11.3163ZM85.1327 14.3443C84.7403 12.9424 83.2823 12.5499 81.4877 12.5499C79.4975 12.5499 78.5159 13.0266 78.5159 13.9518C78.5159 14.8209 79.1885 15.3256 80.8151 15.6341L84.3197 16.2509C88.8059 17.0639 90.9647 18.4097 90.9647 21.6901C90.9647 25.8957 87.0953 28.0266 81.9083 28.0266C76.9175 28.0266 73.3853 25.9237 72.7403 21.4938H78.0671C78.5717 23.2882 80.0297 23.8489 81.9923 23.8489C84.0395 23.8489 85.4693 23.2882 85.4693 22.1667C85.4693 21.3537 84.7403 20.7929 82.5251 20.4284L79.1885 19.8676C75.5717 19.2789 73.1045 17.4564 73.1045 14.148C73.1045 10.4191 77.0297 8.37235 81.6563 8.37235C85.9175 8.37235 89.8151 10.0826 90.5159 14.3724L85.1327 14.3443ZM93.9083 3.71815H99.6281V8.82093H103.749V12.8864H99.6281V21.2696C99.6281 23.0359 100.188 23.3723 102.095 23.3723H103.721V27.5218H100.104C95.4785 27.5218 93.9083 26.6247 93.9083 22.2789V12.8864H90.9647V8.82093H93.9083V3.71815ZM116.815 15.1293C116.815 12.8863 115.749 12.1574 113.646 12.1574C111.796 12.1574 110.562 13.1107 110.31 14.9051H104.955C105.236 11.3724 108.572 8.2602 114.123 8.2602C119.534 8.2602 122.591 10.4471 122.478 16.1387L122.394 20.2041V22.1667C122.394 24.2134 122.534 26.4284 122.815 27.5779H117.179L117.095 25.3069C115.694 27.2976 113.478 28.0266 110.787 28.0266C107.226 28.0266 104.31 25.9518 104.31 22.5312C104.31 17.9331 109.497 16.4471 116.759 15.8864L116.815 15.1293ZM116.983 19.2509C112.974 19.6434 110.31 20.0359 110.31 22.1106C110.31 23.3163 111.46 24.1293 112.946 24.1293C115.245 24.1293 116.983 23.148 116.983 19.6995V19.2509ZM135.6 14.3443C135.095 14.2602 134.534 14.2041 134.03 14.2322C131.254 14.2322 129.824 15.2415 129.824 18.1574V27.5499H124.077V8.82093H129.6V12.3817C130.469 10.1387 132.039 8.82093 134.703 8.70879H135.123C135.291 8.70879 135.432 8.70879 135.6 8.73681V14.3443ZM148.273 14.3443C147.88 12.9424 146.423 12.5499 144.628 12.5499C142.637 12.5499 141.656 13.0266 141.656 13.9518C141.656 14.8209 142.329 15.3256 143.955 15.6341L147.432 16.2509C151.917 17.0639 154.076 18.4097 154.076 21.6901C154.076 25.8957 150.207 28.0266 145.02 28.0266C140.058 28.0266 136.497 25.9237 135.852 21.4938H141.179C141.684 23.2882 143.142 23.8489 145.104 23.8489C147.151 23.8489 148.581 23.2882 148.581 22.1667C148.581 21.3537 147.852 20.7929 145.637 20.4284L142.301 19.8676C138.684 19.2789 136.245 17.4564 136.245 14.148C136.245 10.4191 140.17 8.37235 144.796 8.37235C149.058 8.37235 152.955 10.0826 153.656 14.3724L148.273 14.3443Z" fill="black"/>
<path d="M153.965 30.0002V25.1777H169.442V30.0002H153.965Z" fill="#39C463"/>
</g>
<defs>
<clipPath id="clip0_112_7668">
<rect width="168.6" height="30" fill="white" transform="translate(0.845215)"/>
</clipPath>
</defs>
</svg>
