<svg width="146" height="30" viewBox="0 0 146 30" fill="none" xmlns="http://www.w3.org/2000/svg">
<g clip-path="url(#clip0_112_7639)">
<path d="M30.5552 0H0.555176V30H30.5552V0Z" fill="#F26625"/>
<path d="M14.5559 16.9998L9.35596 7.2998H11.756L14.756 13.3998C14.756 13.4998 14.8559 13.5998 14.9559 13.6998C15.056 13.7998 15.056 13.8998 15.1559 14.0998L15.2559 14.1998V14.2998C15.356 14.4998 15.356 14.5998 15.4559 14.7998C15.5559 14.8998 15.5559 15.0998 15.656 15.1998C15.7559 14.8998 15.956 14.6998 16.0559 14.2998C16.1559 13.9998 16.3559 13.6998 16.556 13.3998L19.556 7.2998H21.7559L16.556 17.0998V23.2998H14.5559V16.9998Z" fill="white"/>
<path d="M44.2552 5.7998C45.7552 5.7998 47.0552 6.19979 48.0552 6.99977L47.0552 8.19977C46.1552 7.59977 45.2552 7.19981 44.1552 7.19981C42.4552 7.19981 41.1552 8.09982 40.4552 9.7998C40.0552 10.7998 39.8552 12.0998 39.8552 13.7998C39.8552 15.0998 40.0552 16.1998 40.3552 16.9998C41.1552 18.8998 42.4552 19.7998 44.4552 19.7998C45.5552 19.7998 46.5552 19.4998 47.4552 18.7998L48.4552 20.0998C47.1552 20.8998 45.7552 21.2998 44.2552 21.2998C42.4552 21.2998 40.9552 20.5998 39.7552 19.0998C38.5552 17.6998 38.0552 15.7998 38.0552 13.4998C38.0552 11.1998 38.6552 9.39978 39.8552 7.89978C40.9552 6.59981 42.4552 5.7998 44.2552 5.7998Z" fill="#F26625"/>
<path d="M49.9556 15.7004C49.9556 13.9004 50.3555 12.5004 51.2555 11.5004C52.1555 10.5004 53.2556 9.90039 54.6555 9.90039C56.2556 9.90039 57.5556 10.5004 58.4556 11.8004C59.1555 12.8004 59.4555 14.2004 59.4555 15.9004C59.4555 17.9004 58.8555 19.5004 57.7556 20.5004C56.9555 21.2004 55.9556 21.6004 54.7556 21.6004C53.2556 21.6004 52.1555 21.1004 51.2555 20.0004C50.3555 19.0004 49.9556 17.5004 49.9556 15.7004ZM56.9556 12.8004C56.4555 11.9004 55.7555 11.4004 54.6555 11.4004C53.5556 11.4004 52.8555 11.8004 52.3556 12.6004C51.9555 13.2004 51.8555 14.2004 51.8555 15.5004C51.8555 17.2004 52.0556 18.4004 52.5555 19.1004C53.0555 19.8004 53.7555 20.2004 54.7556 20.2004C55.9556 20.2004 56.7555 19.6004 57.1556 18.5004C57.3555 17.9004 57.4556 17.1004 57.4556 16.1004C57.5556 14.6004 57.3555 13.5004 56.9556 12.8004Z" fill="#F26625"/>
<path d="M62.6546 13.0004C62.6546 11.9004 62.5544 11.0004 62.2544 10.3004L63.9542 9.90039C64.2542 10.4004 64.3544 11.0004 64.3544 11.5004V11.6004C64.7546 11.2004 65.1542 10.8004 65.7542 10.5004C66.4544 10.1004 67.0544 9.90039 67.6544 9.90039C68.5544 9.90039 69.3542 10.3004 69.8546 11.0004C69.9542 11.2004 70.1546 11.5004 70.2542 11.7004C71.4542 10.5004 72.5546 9.90039 73.7546 9.90039C74.5544 9.90039 75.2546 10.2004 75.7544 10.7004C76.2542 11.3004 76.5542 12.0004 76.5542 12.8004V21.1004H74.7542V12.9004C74.7542 11.8004 74.2544 11.3004 73.3544 11.3004C72.8546 11.3004 72.2546 11.5004 71.7542 11.9004C71.5544 12.1004 71.1542 12.4004 70.6544 12.8004L70.4546 13.0004V21.1004H68.5544V13.3004C68.5544 12.6004 68.4542 12.1004 68.2544 11.9004C67.9544 11.6004 67.6544 11.5004 67.1546 11.5004C66.3542 11.5004 65.4542 12.0004 64.3544 13.0004V21.2004H62.6546V13.0004Z" fill="#F26625"/>
<path d="M79.6543 5.4L81.4543 5C81.6541 5.8 81.7543 6.7 81.7543 7.79998V10.3C81.7543 10.9 81.7543 11.3 81.7543 11.5C82.7545 10.5 83.8543 10 84.9541 10C86.2543 10 87.3541 10.5 88.0543 11.5C88.8541 12.5 89.2543 13.9 89.2543 15.6C89.2543 17.4 88.8541 18.8 88.0543 19.9C87.2545 21 86.1541 21.5 84.8545 21.5C84.2545 21.5 83.7541 21.4 83.1541 21.1C82.5541 20.8 82.1545 20.5 81.8545 20.1C81.7543 20.6 81.6541 21 81.5545 21.3H79.8541C80.0545 20.8 80.1541 19.9 80.1541 18.5V8.00002C80.0545 6.80002 79.9543 5.9 79.6543 5.4ZM82.5541 12.2C82.2541 12.4 81.9541 12.7 81.7543 13V18.7C82.4545 19.6 83.3545 20 84.4543 20C85.3543 20 86.0545 19.7 86.4541 19C86.9545 18.2 87.2545 17.1 87.2545 15.5C87.2545 14.1 87.0541 13.1 86.5543 12.5C86.1541 11.9 85.4545 11.6 84.4543 11.6C83.8543 11.5 83.1541 11.7 82.5541 12.2Z" fill="#F26625"/>
<path d="M91.856 6.80037C91.856 6.40041 91.9562 6.10041 92.2562 5.80039C92.5562 5.50039 92.8562 5.40039 93.2558 5.40039C93.656 5.40039 93.956 5.50039 94.256 5.80039C94.556 6.10041 94.6562 6.40041 94.6562 6.80037C94.6562 7.20039 94.556 7.50039 94.256 7.80039C93.956 8.10039 93.656 8.20041 93.2558 8.20041C92.8562 8.20041 92.5562 8.10039 92.2562 7.80039C91.9562 7.50039 91.856 7.20039 91.856 6.80037ZM92.2562 21.2004V10.2004L94.0562 9.90039V21.2004H92.2562Z" fill="#F26625"/>
<path d="M97.9549 13.0004C97.9549 12.2004 97.9549 11.7004 97.8553 11.5004C97.8553 11.2004 97.6549 10.9004 97.4551 10.4004L99.1549 9.90039C99.4549 10.5004 99.5551 11.0004 99.5551 11.6004C100.655 10.5004 101.855 9.90039 103.055 9.90039C103.655 9.90039 104.155 10.0004 104.655 10.3004C105.155 10.6004 105.555 11.0004 105.755 11.5004C105.955 11.9004 106.055 12.3004 106.055 12.8004V21.2004H104.355V13.7004C104.355 12.8004 104.255 12.2004 103.955 11.9004C103.655 11.6004 103.255 11.4004 102.755 11.4004C102.355 11.4004 101.755 11.6004 101.155 11.9004C100.555 12.2004 100.055 12.6004 99.6553 13.0004V21.2004H97.9549V13.0004Z" fill="#F26625"/>
<path d="M110.055 12.6004L109.155 11.4004C110.655 10.4004 112.155 9.90039 113.755 9.90039C115.355 9.90039 116.355 10.5004 116.855 11.6004C117.055 12.0004 117.055 12.6004 117.055 13.5004V14.1004L116.955 17.7004C116.955 17.8004 116.955 18.0004 116.955 18.2004C116.955 18.8004 116.955 19.2004 117.055 19.5004C117.155 19.9004 117.455 20.2004 117.855 20.4004L116.955 21.6004C116.155 21.3004 115.655 20.8004 115.455 20.0004C114.455 21.0004 113.355 21.5004 112.255 21.5004C111.155 21.5004 110.255 21.2004 109.555 20.6004C108.955 20.1004 108.655 19.3004 108.655 18.3004C108.655 17.0004 109.155 16.1004 110.155 15.4004C111.155 14.7004 112.655 14.4004 114.455 14.4004C114.755 14.4004 114.955 14.4004 115.255 14.4004V13.6004C115.255 12.7004 115.155 12.1004 114.855 11.9004C114.455 11.5004 114.055 11.3004 113.355 11.3004C112.755 11.3004 112.055 11.5004 111.255 11.8004C110.955 12.0004 110.555 12.3004 110.055 12.6004ZM115.355 18.5004L115.455 15.6004C114.955 15.6004 114.655 15.6004 114.555 15.6004C112.955 15.6004 111.955 15.9004 111.355 16.5004C110.955 16.9004 110.755 17.5004 110.755 18.3004C110.755 19.6004 111.355 20.3004 112.655 20.3004C113.855 20.2004 114.755 19.6004 115.355 18.5004Z" fill="#F26625"/>
<path d="M122.755 10.2H125.556L125.056 11.6H122.755V18.7C122.755 19.3 122.856 19.7 123.055 20C123.256 20.2 123.655 20.4 124.156 20.4C124.555 20.4 124.956 20.3 125.256 20.2L125.455 21.3C124.855 21.6 124.255 21.7 123.556 21.7C121.855 21.7 121.056 20.9 121.056 19.2V11.6H119.556V10.2H120.955V10C120.955 9.80002 121.056 9.00004 121.156 7.70002V7.40002L122.956 7C122.755 8.2 122.755 9.30004 122.755 10.2Z" fill="#F26625"/>
<path d="M127.355 15.7004C127.355 13.9004 127.756 12.5004 128.656 11.5004C129.455 10.5004 130.655 9.90039 132.055 9.90039C133.655 9.90039 134.956 10.5004 135.856 11.8004C136.555 12.8004 136.855 14.2004 136.855 15.9004C136.855 17.9004 136.255 19.5004 135.155 20.5004C134.356 21.2004 133.355 21.6004 132.155 21.6004C130.655 21.6004 129.556 21.1004 128.656 20.0004C127.855 19.0004 127.355 17.5004 127.355 15.7004ZM134.455 12.8004C133.955 11.9004 133.255 11.4004 132.155 11.4004C131.056 11.4004 130.355 11.8004 129.856 12.6004C129.455 13.2004 129.355 14.2004 129.355 15.5004C129.355 17.2004 129.556 18.4004 130.055 19.1004C130.555 19.8004 131.255 20.2004 132.256 20.2004C133.456 20.2004 134.255 19.6004 134.656 18.5004C134.855 17.9004 134.956 17.1004 134.956 16.1004C134.956 14.6004 134.755 13.5004 134.455 12.8004Z" fill="#F26625"/>
<path d="M140.154 12.8004C140.154 11.8004 140.054 11.0004 139.754 10.4004L141.454 9.90039C141.754 10.5004 141.854 11.0004 141.854 11.6004V11.8004C142.754 10.6004 143.754 10.0004 144.954 10.0004C145.154 10.0004 145.354 10.0004 145.554 10.1004L144.854 12.0004C144.654 11.9004 144.454 11.9004 144.354 11.9004C143.954 11.9004 143.454 12.0004 143.054 12.3004C142.654 12.6004 142.254 12.9004 142.054 13.3004C141.954 13.6004 141.854 14.0004 141.854 14.5004V21.4004H140.154V12.8004Z" fill="#F26625"/>
</g>
<defs>
<clipPath id="clip0_112_7639">
<rect width="145.2" height="30" fill="white" transform="translate(0.555176)"/>
</clipPath>
</defs>
</svg>
